<?xml version="1.0" encoding="UTF-8"?>
<svg viewBox="0 0 283 547" xmlns="http://www.w3.org/2000/svg">
 <path d="m128.35 455.75c0.36763-45.788 0.69263-116.32 0.72223-156.74l0.0538-73.49-2.1732-1.7597c-3.1704-2.5672-3.9894-2.1667-2.7631 1.3512 1.276 3.6603 0.32964 22.771-1.2036 24.304-0.66565 0.66565-1.5811 0.4089-2.7421-0.76903-1.6578-1.682-1.6461-1.8399 0.23922-3.2371 1.6012-1.1865 2.0559-2.9314 2.3664-9.0788 0.3787-7.4993-1.0679-15.33-2.8319-15.33-3.3157 0-7.2684 12.45-7.4593 23.494-0.11319 6.5484-0.43513 8.0513-1.7802 8.3103-2.3651 0.45548-4.4967-3.788-2.6248-5.2253 0.77299-0.59354 1.9576-4.3655 2.6325-8.3822s2.0911-9.8625 3.1472-12.991c1.056-3.1282 1.7585-5.8492 1.5611-6.0466-0.8996-0.89961-8.0013 2.3477-11.117 5.0833-4.7042 4.1304-8.7188 11.184-8.1272 14.278 0.60701 3.1754-1.622 5.2437-3.7488 3.4786-1.8261-1.5155-1.938-3.6204-0.25-4.7003 0.6875-0.43982 2.0208-2.4674 2.9628-4.5056 3.7668-8.1501 13.239-15.714 19.752-15.772 2.201-0.019608 2.3025-0.18376 0.9497-1.5365-3.9946-3.9945-17.382-1.2704-18.083 3.6796-0.43452 3.0682-4.2009 3.2447-4.6329 0.21715-0.23649-1.6572 0.80204-2.6953 4.7746-4.7725 6.7484-3.5286 12.528-4.2632 17.429-2.2153 2.1136 0.88312 3.9756 1.6057 4.1379 1.6057 0.97811 0 2.6496-12.602 3.6678-27.654 1.0638-15.726 1.0181-17.695-0.46986-20.214-0.90668-1.5349-1.9173-4.3164-2.2458-6.1811-0.32852-1.8647-0.75994-3.553-0.95871-3.7518-0.98333-0.98334-4.7664 2.4158-10.556 9.4846-6.9477 8.483-15.441 16.959-24.866 24.816-3.2989 2.75-6.0234 5.385-6.0543 5.8556-0.030907 0.47061 1.137 2.2706 2.5954 4 4.0598 4.8144 5.3686 8.9212 5.1676 16.216-0.18627 6.7604-1.6129 9.035-4.1042 6.5438-0.86746-0.86746-0.69759-1.9918 0.69032-4.569 2.2169-4.1165 1.5754-10.688-1.42-14.546l-1.9408-2.5-0.0222 6.1229c-0.025673 7.0655-2.2139 12.69-7.4963 19.268-1.9393 2.4149-3.526 4.8087-3.526 5.3196 0 0.51085-1.0125 0.78502-2.25 0.60927-3.3763-0.47949-3.168-5.1943 0.25-5.6607 1.375-0.18764 3.3221-1.0762 4.327-1.9746 3.2533-2.9088 6.6741-11.531 6.6577-16.781-0.022255-7.1288-1.2594-8.3383-3.4836-3.4058-2.3701 5.256-13.994 17.246-16.291 16.804-2.7626-0.53203-2.129-4.2468 0.78992-4.6309 2.7876-0.36685 11.38-8.1956 13.578-12.371 0.78186-1.4852 1.4216-3.8538 1.4216-5.2634 0-2.563-1.07e-4 -2.563-3.6643-1.032-5.1838 2.166-19.139 13.603-19.519 15.996-0.50794 3.2042-4.2482 2.5988-4.6335-0.75-0.24196-2.1028 0.11104-2.7535 1.5-2.7649 0.99903-0.008209 5.4164-2.9415 9.8164-6.5185s9.2469-6.7784 10.771-7.1142c4.3534-0.95938 4.2219-2.2273-0.45092-4.3479-7.5135-3.4098-16.282-2.1715-22.35 3.1561-2.005 1.7604-4.1088 2.8083-4.9727 2.4768-1.8077-0.69368-2.0104-4.59-0.24731-4.7527 2.3644-0.21817 3.2607-0.51134 7.25-2.3713 5.8952-2.7486 17.658-2.6842 23.283 0.12738l4.2827 2.1407-0.645-2.1407c-1.1053-3.6682-5.4027-7.3758-10.061-8.68-3.3574-0.94002-4.7541-0.9664-5.6145-0.10602-2.0615 2.0615-4.7453 1.3558-4.7453-1.2477 0-2.7274 2.2663-3.9976 4.7895-2.6844 0.94075 0.48959 3.562 1.3821 5.8251 1.9834 5.2939 1.4065 9.2664 4.5651 11.02 8.7619 0.76573 1.8327 1.7363 3.3321 2.1568 3.3321 1.2394 0 14.327-11.038 20.244-17.074 8.5656-8.7372 12.945-14.212 13.539-16.926 0.30097-1.375 1.1638-3.9131 1.9175-5.6401 1.2757-2.9232 1.2036-3.2968-1.0439-5.4082-1.3278-1.2474-2.6877-3.1296-3.0219-4.1825-0.80442-2.5345-4.9956-1.8784-20.927 3.2763-13.604 4.4015-24.133 6.9481-28.812 6.9682-1.7534 0.007507-4.1897 0.28218-5.4141 0.61038-1.9301 0.51738-2.0731 0.88123-1.0754 2.7363 1.5162 2.8192 1.6216 16.943 0.13985 18.745-0.63069 0.76708-1.3023 2.5197-1.4925 3.8947-0.25964 1.8769-1.0312 2.5789-3.0958 2.8164-2.3631 0.27191-2.75-0.041946-2.75-2.231 0-1.8648 0.65221-2.7111 2.4342-3.1583 1.5326-0.38467 2.8289-1.7433 3.5-3.6683 1.2824-3.6786 1.3766-11.72 0.15979-13.641-0.92437-1.4595-1.1691-0.97029-2.4726 4.9428-0.93918 4.2604-6.3363 10.753-10.855 13.058-2.343 1.1953-4.759 2.8556-5.3688 3.6896-1.6117 2.2042-4.6151 0.74155-4.2181-2.0542 0.26305-1.8524 0.98084-2.2732 4.0246-2.3596 2.0375-0.057831 4.8782-0.87419 6.3127-1.8142 3.8571-2.5273 8.4828-10.377 8.4828-14.395v-3.4229l-3.25 2.4744c-4.6079 3.5083-10.447 6.2714-16.25 7.6901-2.75 0.67229-6.4589 1.9132-8.2419 2.7577-3.7404 1.7714-6.5565 1.1072-6.0701-1.4318 0.25588-1.3356 1.4329-1.795 4.9429-1.9292 2.5339-0.096893 6.571-0.705 8.9713-1.3514 8.4566-2.2771 19.862-9.6033 18.466-11.862-1.6171-2.6165-16.604 0.2574-19.135 3.6692-1.5051 2.0294-4.9339 1.1304-4.9339-1.2937 0-1.4705 0.77897-2.0678 3-2.3004 1.65-0.17273 5.2192-0.96024 7.9315-1.75 2.7123-0.78978 6.6873-1.4359 8.8333-1.4359 5.2902 0 4.5242-1.7965-2.2384-5.25-7.0489-3.5997-16.854-3.9245-19.896-0.65915-2.3271 2.4979-5.63 2.1731-5.63-0.5537 0-1.5885 1.1651-2.1572 6.5-3.1728 9.3058-1.7714 17.652-0.22316 23.75 4.406 3.7628 2.8562 3.9452 2.512 1.3564-2.5602-2.5708-5.0371-4.8739-6.9252-11.138-9.1312-4.167-1.4675-5.8428-1.6376-7.7172-0.7836-2.7745 1.2642-4.3369-0.25113-3.5119-3.4061 0.50698-1.9387 3.7003-2.6052 4.7036-0.98178 0.30848 0.49913 3.0208 1.6812 6.0273 2.6269 8.2857 2.6062 13.212 7.3528 15.254 14.697l1.6784 6.0368 8.0487-0.6016c8.3695-0.6256 28.634-5.6253 33.957-8.3782 6.0684-3.1381 12.591-9.6098 12.591-12.494 4.2e-4 -2.3475-0.49473-2.7874-3.7495-3.3311-13.558-2.2648-35.433-10.049-45.476-16.183l-3.7257-2.2756-1.633 3.2472c-2.5419 5.0546-9.3802 11.59-12.832 12.262-1.6962 0.33067-4.1098 1.1082-5.3635 1.7278-1.8417 0.91016-2.6031 0.80293-3.9643-0.55824-1.5797-1.5797-1.5783-1.7912 0.022369-3.3919 1.3334-1.3334 1.9714-1.4429 2.9143-0.5 2.4438 2.4438 6.7005 1.3466 11.33-2.9202 5.1491-4.7463 5.9756-7.0755 1.3392-3.774-2.5234 1.7968-4.5323 2.2423-10.25 2.2731-12.875 0.069427-18.243-1.7005-15.432-5.0882 1.4533-1.7511 4.8204-1.6245 4.8204 0.18128 0 2.2168 3.3076 3.5352 8.8692 3.5352 5.8185 0 9.7275-1.287 12.881-4.2409 3.0507-2.8578 2.8617-3.3106-1.5-3.5935-7.4184-0.48106-16.464-3.8742-22.135-8.3031-1.3117-1.0244-3.4805-1.8626-4.8196-1.8626-1.9529 0-2.3714-0.44526-2.1151-2.25 0.32071-2.2582 4.8196-3.993 4.8196-1.8585 0 3.6622 15.715 11.914 24.396 12.81 4.485 0.46289 5.6043 0.29005 5.6043-0.86533 0-3.4477-10.435-10.621-16.5-11.343-1.1-0.13088-2.3375-0.2954-2.75-0.36559s-0.75-1.0417-0.75-2.159c0-2.956 2.9313-3.6922 4.878-1.2251 0.89212 1.1306 3.872 3.1772 6.622 4.548s5.8572 3.4409 6.905 4.6004c2.857 3.1616 3.595 2.6003 3.595-2.7346 0-7.3077-7.4236-19.196-12.331-19.747-1.1929-0.13396-2.5064-0.28107-2.9189-0.3269-1.4711-0.16346-0.7197-3.881 0.91087-4.5067 1.7586-0.67485 7.7938 5.237 13.102 12.834 2.4103 3.4499 2.7326 4.834 2.7349 11.745 0.00148 4.4352 0.41008 7.7006 0.94177 7.5262 2.5761-0.84476 4.9573-6.0149 5.3648-11.648 0.4136-5.7178 0.31322-6.0388-2.1852-6.9887-2.8475-1.0826-3.392-3.1585-1.2867-4.9058 0.98531-0.81773 1.8214-0.74764 3.2122 0.2693 1.5789 1.1545 1.8862 2.7366 1.918 9.8736 0.035938 8.0793-0.11925 8.6945-3.144 12.465l-3.1818 3.966 5.8992 3.4898c3.2446 1.9194 12.276 5.6534 20.07 8.2978 11.862 4.0245 14.487 4.6107 16.109 3.5976 1.066-0.66574 4.1942-1.4776 6.9516-1.8042 3.929-0.46533 5.2385-1.0879 6.0542-2.878 1.2131-2.6624-0.86305-5.9567-8.0623-12.793-6.1184-5.8098-16.693-18.699-23.111-28.169l-5.4526-8.046-4.8434 3.2593c-5.8154 3.9135-9.3129 4.6449-17.251 3.608-5.0673-0.66188-6-1.0939-6-2.7795 0-2.7961 3.8651-3.1307 6.4385-0.55728 2.6272 2.6273 6.379 2.5842 12.062-0.1386l4.5-2.1562-6-0.703c-9.168-1.0742-13.43-3.3929-20-10.882-0.54999-0.62693-1.9-1.769-3-2.538-1.8706-1.3076-1.8918-1.508-0.32754-3.096 2.1809-2.214 4.8275-1.144 4.8275 1.9516 0 3.5096 8.7512 11.156 13.704 11.975 5.189 0.85748 10.304 0.80724 10.257-0.10075-0.021179-0.4125-1.4609-1.65-3.1993-2.75s-5.1066-4.475-7.4848-7.5-5.237-6.4379-6.3529-7.5842c-1.8072-1.8565-1.8607-2.2238-0.48941-3.3619 2.1716-1.8023 4.9217-0.52616 4.2664 1.9797-0.57349 2.193 5.0047 10.017 9.8708 13.844 2.8098 2.2102 7.1268 3.7561 8.0133 2.8695 1.9604-1.9604-11.055-24.114-14.732-25.076-2.9168-0.76277-2.0274-4.1719 1.0885-4.1719 1.7502 0 2.6041 0.70959 3.1043 2.5797 0.37945 1.4188 2.9985 6.1438 5.8201 10.5 2.8216 4.3561 5.4061 9.3828 5.7433 11.17 0.3372 1.7875 0.97286 3.25 1.4126 3.25 0.43972 0 1.7396-1.9421 2.8887-4.3157 3.6163-7.4703 2.4371-21.357-2.016-23.741-2.2138-1.1848-2.5224-4.4889-0.49201-5.268 2.0442-0.78444 5.0373 1.7349 4.3107 3.6284-0.33627 0.87633 0.072021 2.9633 0.90733 4.6377 3.2055 6.4256 1.3525 21.115-3.314 26.272-1.5032 1.661-1.4708 1.7866 0.46141 1.7866 5.2529 0 13.173-11.956 10.252-15.476-1.6695-2.0116-0.56981-4.5238 1.9802-4.5238 2.4306 0 3.7534 2.6466 2.1328 4.2672-0.62304 0.62303-1.1328 1.9607-1.1328 2.9726 0 2.5673-3.3534 8.8671-5.9939 11.26-1.2137 1.1-3.7397 2.45-5.6133 3l-3.4066 1 5.1576 7.9492c10.004 15.419 22.63 29.156 27.736 30.177 1.639 0.32781 3.961 1.6402 5.16 2.9164 2.1061 2.2419 2.2947 2.2657 5.57 0.7038 1.8646-0.88914 3.4337-2.0958 3.487-2.6814 0.28824-3.1676-0.36263-9.94-1.6034-16.684-2.0461-11.12-2.7707-24.473-1.7208-31.711l0.9182-6.3302-5.7058 0.6622c-6.8186 0.79138-12.969-0.79144-16.124-4.1493-1.2155-1.2938-3.0315-2.3524-4.0356-2.3524-1.9587 0-2.3416-1.6368-0.91129-3.8957 1.068-1.6868 4.0856-0.74473 4.0856 1.2754 0 4.0593 9.9378 8.6057 15.667 7.1676 2.573-0.64578 2.4702-0.7734-2.5604-3.181-5.3416-2.5564-10.382-8.6803-11.815-14.356-0.34594-1.3696-1.2482-3.1093-2.005-3.8661-1.636-1.636-1.2974-3.1084 1.0513-4.5724 2.1753-1.3559 3.8328 0.89985 3.0253 4.1172-1.423 5.6697 5.1113 15.516 11.469 17.282 4.9111 1.3641 5.6316 1.2937 4.2162-0.41176-1.9231-2.3172-4.9818-13.515-5.6158-20.558-0.32177-3.575-1.0817-7.5216-1.6886-8.7702-1.1401-2.3453-0.43514-3.8074 2.1256-4.4084 1.0802-0.25351 1.4268 1.8972 1.6406 10.179 0.29191 11.31 2.7132 20.082 6.4854 23.496 1.8882 1.7088 1.9913 1.6714 3.078-1.114 1.597-4.0937 0.49002-16.102-1.7083-18.531-1.6017-1.7699-1.6091-2.0356-0.098503-3.5462 1.3414-1.3414 1.9075-1.4052 3.1703-0.35711 0.97992 0.81327 1.2384 1.81 0.71295 2.749-0.45342 0.8102-0.43887 3.7974 0.032333 6.6382 0.47118 2.8408 0.58073 7.3026 0.24339 9.9151-0.73174 5.6673 0.31474 6.0499 4.518 1.6516 4.8338-5.0582 7.8582-16.802 5.4984-21.351-0.79309-1.5287-1.442-3.403-1.442-4.1651 0-1.4371 3.5388-1.9563 4.333-0.63569 0.24808 0.4125 0.094406 4.6177-0.34146 9.3448-0.89494 9.7057-3.4501 15.847-8.3687 20.114-3.9454 3.4231-1.8785 3.5886 4.9731 0.39829 6.1566-2.8668 9.3692-7.5317 10.27-14.913 0.52682-4.3162 0.97206-5.1942 2.634-5.1942 2.1435 0 3.497 4.248 1.7165 5.3869-0.52719 0.3372-2.3622 3.404-4.0777 6.8152-3.6818 7.3208-9.3845 11.327-17.192 12.077-4.4649 0.429-4.8965 0.70868-5.5452 3.593-1.1202 4.9804-0.80518 22.283 0.59409 32.628 1.0116 7.479 1.9291 10.51 4.313 14.25l3.028 4.75h5.9372c4.8741 0 6.4692-0.44767 8.9083-2.5 1.6341-1.375 3.5043-2.5 4.1559-2.5 1.8212 0 12.553-20.302 15.783-29.859 3.7867-11.203 3.7519-11.652-0.91263-11.774-4.8364-0.12682-9.7194-2.6492-11.882-6.1375-0.93036-1.5011-2.7486-3.8934-4.0405-5.3164-3.4381-3.7868-1.4684-7.5805 2.5986-5.0048 0.88742 0.56201 1.1633 1.7619 0.76764 3.3385-0.47 1.8727 0.15555 3.3556 2.6162 6.2022 2.733 3.1617 4.008 3.8201 8.2324 4.2518l4.9985 0.5108-3.5105-2.981c-5.5389-4.7034-8.2685-11.264-9.0387-21.726-0.6604-8.97-0.14429-10.899 2.6313-9.8338 2.08 0.79818 2.4387 3.1666 0.73714 4.8682-2.645 2.645-1.1351 13.515 2.7095 19.507 4.9387 7.6962 5.4087 7.742 6.8696 0.66907 0.70569-3.4165 1.8689-7.614 2.5849-9.3277 0.71602-1.7137 0.94185-3.6983 0.50186-4.4102-1.1555-1.8696-0.067062-3.9758 2.0546-3.9758 2.4706 0 3.7089 4.0016 1.6031 5.1801-3.0775 1.7223-6.4982 19.82-3.7462 19.82 1.2045 0 6.721-6.356 8.4739-9.7635 2.9435-5.722 5.5291-16.082 4.932-19.761-0.55327-3.4096-0.43387-3.6304 1.7922-3.3144 2.4556 0.34861 3.9112 3.5884 2.12 4.7188-0.54019 0.34091-1.9857 4.2198-3.2121 8.6198-2.632 9.4424-3.9856 12.272-8.1248 16.986l-3.0849 3.5135h3.7658c8.0346 0 16.442-7.8936 16.442-15.438 0-3.262 0.2659-3.6636 2.2398-3.382 2.8013 0.39965 3.4805 3.4433 1.2612 5.6511-0.92241 0.91763-2.65 3.4261-3.839 5.5744-2.7847 5.0312-5.8781 7.2258-12.557 8.909-5.9747 1.5056-4.9821 2.6958 2.227 2.6703 5.2775-0.018669 8.8085-1.7937 10.473-5.2645 1.2455-2.5975 5.1954-3.9058 5.1954-1.7207 0 1.9876 0.29926 2.5213 2.1344 3.8067 2.2415 1.57 2.451 4.7546 0.36558 5.5549-3.5083 1.3462-0.5672 12.613 4.2782 16.388 2.3668 1.8444 3.4367 1.52 2.257-0.68426-1.517-2.8345-1.2622-14.171 0.42607-18.956 0.80368-2.2779 2.5084-5.597 3.7883-7.3757s2.3098-3.909 2.2888-4.734c-0.024109-0.94355 0.88908-1.5 2.4617-1.5 1.8312 0 2.5855 0.60188 2.8196 2.25 0.24251 1.7077-0.17625 2.25-1.7374 2.25-4.4112 0-9.4436 11.825-8.9038 20.921 0.36368 6.1288 1.7823 7.3892 3.8881 3.4545 0.78589-1.4685 4.8049-5.6041 8.9312-9.1903s7.8253-7.345 8.2201-8.353c0.77713-1.9842 2.4698-2.3165 4.678-0.91826 1.8216 1.1534 0.67628 4.0759-1.6143 4.1195-4.229 0.080391-20.281 15.606-20.281 19.616 0 2.2536 4.3843 1.5264 10.609-1.7599 7.1296-3.7639 10.184-6.4366 10.588-9.2644 0.47401-3.3225 4.2239-2.8158 4.6197 0.62429 0.24916 2.1654-0.096817 2.75-1.6276 2.75-1.0692 0-2.5057 0.6768-3.1922 1.504-2.0188 2.4325-12.215 8.2149-15.846 8.9866-7.8292 1.6639 3.0412 4.6914 12.322 3.4318 5.2845-0.71712 12.892-4.5217 11.983-5.9927-0.21584-0.34928 0.21944-1.4719 0.96727-2.4946 1.1541-1.5783 1.603-1.6577 2.968-0.52488 2.6644 2.2113 1.8594 3.7488-3.4035 6.5008-9.4112 4.921-18.568 6.2202-25.436 3.6089-3.2395-1.2317-2.4804 0.63457 1.5646 3.8464 3.3208 2.6368 9.7566 4.4574 11.349 3.2106 1.9216-1.5048 10.615-1.0305 11.246 0.61343 0.68634 1.7886-1.5658 3.4644-3.7464 2.7877-1.5889-0.49303-10.879 8.2856-12.723 12.022-0.54272 1.1-1.3007 4.163-1.6843 6.8066l-0.6976 4.8066 3.8198-2.3932c2.1009-1.3163 5.9509-3.2004 8.5556-4.187 2.6047-0.98659 5.2473-2.4101 5.8724-3.1634 1.5057-1.8143 3.8118-1.7415 4.535 0.14317 0.9068 2.3631-1.5164 4.5572-4.2698 3.8662-2.8878-0.7248-11.894 3.4178-15.291 7.0331l-2.3067 2.4554 3.7035 0.6948c2.0369 0.38213 5.8624 0.43909 8.5011 0.12658 5.7254-0.6781 17.403-5.7641 18.746-8.165 1.3424-2.3987 5.7732-1.6624 5.7732 0.95928 0 1.4876-0.87439 2.13-3.5 2.5712-1.925 0.3235-5.0013 1.3753-6.8362 2.3372-3.9457 2.0686-15.014 4.5497-20.664 4.6322l-4 0.0584 4.3053 3.8939c3.4332 3.1051 5.3576 4.0241 9.5 4.5365 5.2862 0.65392 10.695-0.60419 10.695-2.4878 0-0.56361 0.89999-1.0248 2-1.0248 1.4441 0 2 0.66667 2 2.3985 0 2.2277-0.4808 2.4467-6.75 3.0748-7.4074 0.74213-14.219-0.91519-19.681-4.7883-1.7864-1.2669-2.6073-1.5135-2.1025-0.63168 4.1485 7.2474 11.257 12.251 14.078 9.9092 1.7204-1.4278 4.4548-0.57852 4.4548 1.3836 0 3.4799-2.5808 3.6852-8.7515 0.69609-6.7418-3.2658-10.415-7.3817-12.309-13.792-0.69067-2.3375-1.3676-4.25-1.5043-4.25-0.13667 0-3.2246 1.3353-6.862 2.9673-11.902 5.3401-16.092 6.2038-32.073 6.612-21.218 0.54204-20.156 0.31772-22.405 4.7315-1.6366 3.212-1.7139 3.8982-0.49199 4.3672 0.79735 0.30597 2.5856 2.4946 3.974 4.8636 1.9149 3.2675 4.5639 5.5306 10.973 9.3742 8.0937 4.854 21.468 10.648 29.95 12.975 5.3274 1.4617 5.1853 1.5008 5.9695-1.6413 2.1205-8.4961 7.9336-12.835 19.725-14.723 10.584-1.6947 12.428-1.0979 9.3661 3.032-1.2245 1.6517-1.7443 1.7548-3.4864 0.69113-2.7695-1.6909-10.535-1.5804-13.976 0.19891-2.8493 1.4734-9.5513 8.4319-8.8228 9.1604 0.21962 0.21964 1.8462-0.32245 3.6145-1.2046 4.1905-2.0905 13.675-2.9188 18.11-1.5814 8.8016 2.6544 11.5 4.0232 11.5 5.8338 0 2.6966-4.1446 3.0382-4.9786 0.41046-0.92004-2.8988-10.184-5.4911-16.368-4.5801-4.9348 0.72696-11.153 3.2336-11.153 4.4957 0 0.41538 1.5643 1.0091 3.4763 1.3194 2.97 0.48196 12.554 4.118 17.524 6.6482 2.1512 1.0953 2.4402 3.9432 0.47656 4.6967-1.0985 0.42154-2.4089-0.23805-3.8239-1.9248-2.7905-3.3264-11.72-7.7226-15.687-7.7226-2.7368 0-3.0262 0.26402-2.4662 2.25 1.4524 5.1504 19.454 17.37 24.244 16.457 2.5998-0.49539 4.743 1.5821 3.8996 3.78-0.70679 1.8418-3.2479 1.9831-4.3436 0.24153-0.43982-0.69914-4.2775-2.969-8.5282-5.044-4.4533-2.174-9.8566-5.8456-12.75-8.6639-5.2958-5.1582-5.5665-5.0524-5.0602 1.9779 0.48665 6.7578 6.5595 15.001 11.051 15.001 0.9585 0 2.3216 0.69759 3.0292 1.5502 1.0629 1.2807 0.99667 1.8401-0.38077 3.2175-1.5564 1.5564-2.0953 1.2177-8.1018-5.0917-5.5118-5.7898-6.5988-7.5505-7.5804-12.278-0.63022-3.0357-0.89737-6.167-0.59366-6.9585 1.2043-3.1385-1.5813-1.2135-2.9361 2.0289-2.3456 5.6139-1.892 11.217 1.1354 14.023 3.0211 2.7998 2.8538 5.8726-0.34456 6.329-1.8647 0.26604-2.2407-0.15265-2.2454-2.5-0.003052-1.5508-0.48691-4.553-1.0752-6.6718-1.2554-4.521 0.27132-12.595 3.1614-16.72l1.8022-2.572-7.1914-2.2821c-9.049-2.8716-24.117-9.9606-30.944-14.558-2.8713-1.9337-5.8621-3.5158-6.6461-3.5158-0.78403 0-3.3434-1.124-5.6875-2.4977-6.4378-3.7728-7.2064-2.9577-6.8896 7.3056 0.20279 6.5693 0.97494 10.661 3.1618 16.753 2.9072 8.099 11.708 24.875 15.384 29.326 1.9396 2.348 2.0046 2.356 4.0569 0.5 1.7085-1.5451 3.6629-1.8859 10.805-1.8843 8.0596 0.001862 9.0462 0.22896 13.034 3 2.3727 1.6489 5.2635 3.5456 6.4239 4.2148 1.9633 1.1323 2.1605 1.6124 1.7599 4.2832-0.33119 2.208-4.1221 0.95947-4.756-1.5664-1.3748-5.4777-13.654-10.318-20.974-8.2683-3.8224 1.0706-3.8576 1.1212-1.4196 2.0413 7.7055 2.908 13.524 6.5193 15.704 9.7468 7.9935 11.833 8.8856 14.547 4.7818 14.547-1.5221 0-2.0055-0.70111-2.0684-3-0.094666-3.461-3.3515-10.249-6.0615-12.634-3.0574-2.6902-10.091-5.8665-12.991-5.8665h-2.7142l2.1078 2.25c1.1593 1.2375 3.4798 5.175 5.1567 8.75s3.6193 7.3138 4.3165 8.3086c1.067 1.5224 0.96738 2.0316-0.62968 3.218-2.5522 1.8959-3.6865 0.97221-3.5022-2.8518 0.28761-5.968-8.2676-20.594-10.233-17.495-2.9533 4.6577 2.9801 25.884 8.2814 29.627 2.8079 1.9822 2.4067 5.1933-0.64891 5.1933-1.6417 0-2.5-0.55827-2.5-1.626 0-0.8943-1.6341-5.7104-3.6314-10.702-2.258-5.6438-3.8226-11.458-4.1369-15.374-0.53792-6.7013-1.0119-7.3212-3.4771-4.5476-4.8409 5.4466-6.3661 17.932-2.7519 22.526 2.8935 3.6784 0.97008 7.3053-2.6295 4.9584-0.61974-0.40408-1.1266-2.0847-1.1262-3.7347 3.2e-4 -1.65-0.10208-5.6238-0.22757-8.8307-0.18507-4.7298 0.32576-6.9483 2.7057-11.75 1.6136-3.2556 2.7412-5.9193 2.5055-5.9193-0.23561 0-1.8464 0.68988-3.5795 1.5331-4.2688 2.0769-7.0177 6.111-7.091 10.406-0.069443 4.071-1.0713 6.0606-3.0518 6.0606-2.1338 0-3.0383-4.1393-1.1985-5.4846 0.85522-0.62535 2.319-3.0465 3.2528-5.3804 1.3173-3.2922 2.8454-4.9015 6.8176-7.1798 2.8159-1.615 5.9073-2.9407 6.8698-2.9458 2.3835-0.012787 2.2033-1.2538-0.82971-5.715-5.0464-7.4226-11.233-19.933-14.487-29.294-1.8161-5.225-4.1191-10.573-5.1177-11.885-0.99863-1.3117-1.8157-3.4492-1.8157-4.75 0-1.4357-0.58949-2.3651-1.5-2.3651-1.3048 0-1.5 4.5556-1.5 35 0 33.979 0.056641 35 1.941 35 1.0675 0 2.2216 0.45402 2.5646 1.009 1.0924 1.7675-0.56943 4.991-2.5729 4.991-1.9017 0-1.9326 2.4334-1.9326 152v152h-12.32l0.6684-83.25h-1.5e-5zm1.6512-234.63c0-0.48584-0.92572-1.1254-2.0572-1.4213-1.688-0.44142-1.8455-0.2829-0.87756 0.88336 1.3203 1.5908 2.9347 1.8868 2.9347 0.53795zm0-33.117c0-25.254-0.22472-30-1.4206-30-2.0949 0-2.7892 4.7075-3.0112 20.418-0.10949 7.7451-1.0156 19.419-2.0136 25.943-1.9923 13.023-1.8376 13.593 3.6954 13.624l2.75 0.0153v-30zm66.138-52.442c6.177-1.3093 21.862-7.1868 21.862-8.1922 0-0.24595-0.96329-1.7501-2.1406-3.3425-1.2128-1.6403-2.3411-4.9821-2.6032-7.7095-0.83868-8.7288 3.9853-19.662 6.757-15.314 1.562 2.4502 1.1324 3.9942-1.3768 4.9482-2.8543 1.0852-3.6376 2.8929-3.6326 8.3836 0.003525 3.9278 2.9982 10.676 4.7316 10.662 0.42058-0.003395 0.80867-2.2198 0.86241-4.9252 0.12535-6.3113 1.7854-10.439 6.5139-16.196 2.0903-2.545 3.5203-4.9075 3.1778-5.25s-2.4682-0.62272-4.7239-0.62272c-4.9749 0-10.413-3.3992-13.545-8.4666-1.2011-1.9434-2.4846-3.5235-2.8522-3.5114-0.36764 0.012115-2.9184 2.0852-5.6684 4.6069-7.2072 6.6088-20.041 15.759-27.711 19.757-6.4646 3.3696-16.804 10.506-16.774 11.578 0.008347 0.2951 0.61653 2.5616 1.3515 5.0366 1.285 4.3273 1.5435 4.5508 6.7348 5.8238 2.9692 0.72807 6.0574 1.9656 6.8628 2.75 1.9191 1.8692 13.319 1.8613 22.173-0.015366zm-38.363-21.562c1.8008-1.0979 4.8511-1.9963 6.7785-1.9963 6.2396 0 22.158-9.6553 36.82-22.333 5.193-4.4902 5.6561-5.1827 4-5.9815-1.0302-0.49683-3.1798-2.4579-4.7769-4.3579-2.4669-2.9347-3.0092-4.6521-3.6035-11.411-0.38475-4.3762-0.93774-8.1949-1.2289-8.486-0.29111-0.29111-2.2198 0.61794-4.2861 2.0201-4.394 2.9818-12.334 3.4717-17.988 1.1098l-3.4456-1.4397-1.1202 4.1897c-2.2244 8.3196-7.9126 21.422-14.354 33.064-3.6136 6.5307-6.5702 12.065-6.5702 12.298 0 0.54564 5.3397 5.2559 6 5.2927 0.27499 0.015327 1.9734-0.87045 3.7742-1.9684z" fill="#3f7f00" opacity=".6" stroke-width="0"/>
</svg>
