<svg id="visual" viewBox="0 0 900 600" width="900" height="600" xmlns="http://www.w3.org/2000/svg" xmlns:xlink="http://www.w3.org/1999/xlink" version="1.1"><rect x="0" y="0" width="900" height="600" fill="#ffffff"></rect><path d="M0 428L21.5 416.2C43 404.3 86 380.7 128.8 383.7C171.7 386.7 214.3 416.3 257.2 425.5C300 434.7 343 423.3 385.8 413C428.7 402.7 471.3 393.3 514.2 386.7C557 380 600 376 642.8 385.3C685.7 394.7 728.3 417.3 771.2 414C814 410.7 857 381.3 878.5 366.7L900 352L900 601L878.5 601C857 601 814 601 771.2 601C728.3 601 685.7 601 642.8 601C600 601 557 601 514.2 601C471.3 601 428.7 601 385.8 601C343 601 300 601 257.2 601C214.3 601 171.7 601 128.8 601C86 601 43 601 21.5 601L0 601Z" fill="#c0eba6"></path><path d="M0 430L21.5 433.5C43 437 86 444 128.8 444C171.7 444 214.3 437 257.2 433.2C300 429.3 343 428.7 385.8 427.8C428.7 427 471.3 426 514.2 422.2C557 418.3 600 411.7 642.8 419C685.7 426.3 728.3 447.7 771.2 453.8C814 460 857 451 878.5 446.5L900 442L900 601L878.5 601C857 601 814 601 771.2 601C728.3 601 685.7 601 642.8 601C600 601 557 601 514.2 601C471.3 601 428.7 601 385.8 601C343 601 300 601 257.2 601C214.3 601 171.7 601 128.8 601C86 601 43 601 21.5 601L0 601Z" fill="#9dce85"></path><path d="M0 511L21.5 505.2C43 499.3 86 487.7 128.8 476C171.7 464.3 214.3 452.7 257.2 454.7C300 456.7 343 472.3 385.8 472C428.7 471.7 471.3 455.3 514.2 453.8C557 452.3 600 465.7 642.8 471.7C685.7 477.7 728.3 476.3 771.2 477.5C814 478.7 857 482.3 878.5 484.2L900 486L900 601L878.5 601C857 601 814 601 771.2 601C728.3 601 685.7 601 642.8 601C600 601 557 601 514.2 601C471.3 601 428.7 601 385.8 601C343 601 300 601 257.2 601C214.3 601 171.7 601 128.8 601C86 601 43 601 21.5 601L0 601Z" fill="#7bb165"></path><path d="M0 541L21.5 539.7C43 538.3 86 535.7 128.8 531C171.7 526.3 214.3 519.7 257.2 519.5C300 519.3 343 525.7 385.8 530.2C428.7 534.7 471.3 537.3 514.2 531.7C557 526 600 512 642.8 506.8C685.7 501.7 728.3 505.3 771.2 509.8C814 514.3 857 519.7 878.5 522.3L900 525L900 601L878.5 601C857 601 814 601 771.2 601C728.3 601 685.7 601 642.8 601C600 601 557 601 514.2 601C471.3 601 428.7 601 385.8 601C343 601 300 601 257.2 601C214.3 601 171.7 601 128.8 601C86 601 43 601 21.5 601L0 601Z" fill="#589546"></path><path d="M0 567L21.5 561.8C43 556.7 86 546.3 128.8 543.3C171.7 540.3 214.3 544.7 257.2 545.2C300 545.7 343 542.3 385.8 545.7C428.7 549 471.3 559 514.2 558.7C557 558.3 600 547.7 642.8 547C685.7 546.3 728.3 555.7 771.2 560.7C814 565.7 857 566.3 878.5 566.7L900 567L900 601L878.5 601C857 601 814 601 771.2 601C728.3 601 685.7 601 642.8 601C600 601 557 601 514.2 601C471.3 601 428.7 601 385.8 601C343 601 300 601 257.2 601C214.3 601 171.7 601 128.8 601C86 601 43 601 21.5 601L0 601Z" fill="#347928"></path></svg>